<?xml version="1.0" encoding="utf-8" standalone="no"?>
<!DOCTYPE svg PUBLIC "-//W3C//DTD SVG 1.1//EN"
  "http://www.w3.org/Graphics/SVG/1.1/DTD/svg11.dtd">
<svg xmlns:xlink="http://www.w3.org/1999/xlink" width="1716.35875pt" height="635.906719pt" viewBox="0 0 1716.35875 635.906719" xmlns="http://www.w3.org/2000/svg" version="1.1">
 <metadata>
  <rdf:RDF xmlns:dc="http://purl.org/dc/elements/1.1/" xmlns:cc="http://creativecommons.org/ns#" xmlns:rdf="http://www.w3.org/1999/02/22-rdf-syntax-ns#">
   <cc:Work>
    <dc:type rdf:resource="http://purl.org/dc/dcmitype/StillImage"/>
    <dc:date>2026-05-05T16:33:49.714254</dc:date>
    <dc:format>image/svg+xml</dc:format>
    <dc:creator>
     <cc:Agent>
      <dc:title>Matplotlib v3.10.8, https://matplotlib.org/</dc:title>
     </cc:Agent>
    </dc:creator>
   </cc:Work>
  </rdf:RDF>
 </metadata>
 <defs>
  <style type="text/css">*{stroke-linejoin: round; stroke-linecap: butt}</style>
 </defs>
 <g id="figure_1">
  <g id="patch_1">
   <path d="M 0 635.906719 
L 1716.35875 635.906719 
L 1716.35875 0 
L 0 0 
z
" style="fill: #ffffff"/>
  </g>
  <g id="axes_1">
   <g id="patch_2">
    <path d="M 103.82875 585.511406 
L 579.360515 585.511406 
L 579.360515 36.031406 
L 103.82875 36.031406 
z
" style="fill: #ffffff"/>
   </g>
   <g id="matplotlib.axis_1">
    <g id="xtick_1">
     <g id="line2d_1">
      <path d="M 153.648854 585.511406 
L 153.648854 36.031406 
" clip-path="url(#p1cf4074285)" style="fill: none; stroke-dasharray: 1,1.65; stroke-dashoffset: 0; stroke: #cccccc; stroke-opacity: 0.3"/>
     </g>
     <g id="text_1">
      <!-- −4 -->
      <g style="fill: #262626" transform="translate(145.66776 605.032344) scale(0.14 -0.14)">
       <defs>
        <path id="ArialMT-2212" d="M 3381 1997 
L 356 1997 
L 356 2522 
L 3381 2522 
L 3381 1997 
z
" transform="scale(0.015625)"/>
        <path id="ArialMT-34" d="M 2069 0 
L 2069 1097 
L 81 1097 
L 81 1613 
L 2172 4581 
L 2631 4581 
L 2631 1613 
L 3250 1613 
L 3250 1097 
L 2631 1097 
L 2631 0 
L 2069 0 
z
M 2069 1613 
L 2069 3678 
L 634 1613 
L 2069 1613 
z
" transform="scale(0.015625)"/>
       </defs>
       <use xlink:href="#ArialMT-2212"/>
       <use xlink:href="#ArialMT-34" transform="translate(58.398438 0)"/>
      </g>
     </g>
    </g>
    <g id="xtick_2">
     <g id="line2d_2">
      <path d="M 258.062644 585.511406 
L 258.062644 36.031406 
" clip-path="url(#p1cf4074285)" style="fill: none; stroke-dasharray: 1,1.65; stroke-dashoffset: 0; stroke: #cccccc; stroke-opacity: 0.3"/>
     </g>
     <g id="text_2">
      <!-- −2 -->
      <g style="fill: #262626" transform="translate(250.081551 605.032344) scale(0.14 -0.14)">
       <defs>
        <path id="ArialMT-32" d="M 3222 541 
L 3222 0 
L 194 0 
Q 188 203 259 391 
Q 375 700 629 1000 
Q 884 1300 1366 1694 
Q 2113 2306 2375 2664 
Q 2638 3022 2638 3341 
Q 2638 3675 2398 3904 
Q 2159 4134 1775 4134 
Q 1369 4134 1125 3890 
Q 881 3647 878 3216 
L 300 3275 
Q 359 3922 746 4261 
Q 1134 4600 1788 4600 
Q 2447 4600 2831 4234 
Q 3216 3869 3216 3328 
Q 3216 3053 3103 2787 
Q 2991 2522 2730 2228 
Q 2469 1934 1863 1422 
Q 1356 997 1212 845 
Q 1069 694 975 541 
L 3222 541 
z
" transform="scale(0.015625)"/>
       </defs>
       <use xlink:href="#ArialMT-2212"/>
       <use xlink:href="#ArialMT-32" transform="translate(58.398438 0)"/>
      </g>
     </g>
    </g>
    <g id="xtick_3">
     <g id="line2d_3">
      <path d="M 362.476435 585.511406 
L 362.476435 36.031406 
" clip-path="url(#p1cf4074285)" style="fill: none; stroke-dasharray: 1,1.65; stroke-dashoffset: 0; stroke: #cccccc; stroke-opacity: 0.3"/>
     </g>
     <g id="text_3">
      <!-- 0 -->
      <g style="fill: #262626" transform="translate(358.583778 605.032344) scale(0.14 -0.14)">
       <defs>
        <path id="ArialMT-30" d="M 266 2259 
Q 266 3072 433 3567 
Q 600 4063 929 4331 
Q 1259 4600 1759 4600 
Q 2128 4600 2406 4451 
Q 2684 4303 2865 4023 
Q 3047 3744 3150 3342 
Q 3253 2941 3253 2259 
Q 3253 1453 3087 958 
Q 2922 463 2592 192 
Q 2263 -78 1759 -78 
Q 1097 -78 719 397 
Q 266 969 266 2259 
z
M 844 2259 
Q 844 1131 1108 757 
Q 1372 384 1759 384 
Q 2147 384 2411 759 
Q 2675 1134 2675 2259 
Q 2675 3391 2411 3762 
Q 2147 4134 1753 4134 
Q 1366 4134 1134 3806 
Q 844 3388 844 2259 
z
" transform="scale(0.015625)"/>
       </defs>
       <use xlink:href="#ArialMT-30"/>
      </g>
     </g>
    </g>
    <g id="xtick_4">
     <g id="line2d_4">
      <path d="M 466.890225 585.511406 
L 466.890225 36.031406 
" clip-path="url(#p1cf4074285)" style="fill: none; stroke-dasharray: 1,1.65; stroke-dashoffset: 0; stroke: #cccccc; stroke-opacity: 0.3"/>
     </g>
     <g id="text_4">
      <!-- 2 -->
      <g style="fill: #262626" transform="translate(462.997569 605.032344) scale(0.14 -0.14)">
       <use xlink:href="#ArialMT-32"/>
      </g>
     </g>
    </g>
    <g id="xtick_5">
     <g id="line2d_5">
      <path d="M 571.304015 585.511406 
L 571.304015 36.031406 
" clip-path="url(#p1cf4074285)" style="fill: none; stroke-dasharray: 1,1.65; stroke-dashoffset: 0; stroke: #cccccc; stroke-opacity: 0.3"/>
     </g>
     <g id="text_5">
      <!-- 4 -->
      <g style="fill: #262626" transform="translate(567.411359 605.032344) scale(0.14 -0.14)">
       <use xlink:href="#ArialMT-34"/>
      </g>
     </g>
    </g>
    <g id="text_6">
     <!-- Ideological Position Index (IPI) -->
     <g style="fill: #262626" transform="translate(211.09182 624.918281) scale(0.18 -0.18)">
      <defs>
       <path id="Arial-BoldMT-49" d="M 438 0 
L 438 4581 
L 1363 4581 
L 1363 0 
L 438 0 
z
" transform="scale(0.015625)"/>
       <path id="Arial-BoldMT-64" d="M 3503 0 
L 2688 0 
L 2688 488 
Q 2484 203 2207 64 
Q 1931 -75 1650 -75 
Q 1078 -75 670 386 
Q 263 847 263 1672 
Q 263 2516 659 2955 
Q 1056 3394 1663 3394 
Q 2219 3394 2625 2931 
L 2625 4581 
L 3503 4581 
L 3503 0 
z
M 1159 1731 
Q 1159 1200 1306 963 
Q 1519 619 1900 619 
Q 2203 619 2415 876 
Q 2628 1134 2628 1647 
Q 2628 2219 2422 2470 
Q 2216 2722 1894 2722 
Q 1581 2722 1370 2473 
Q 1159 2225 1159 1731 
z
" transform="scale(0.015625)"/>
       <path id="Arial-BoldMT-65" d="M 2381 1056 
L 3256 909 
Q 3088 428 2723 176 
Q 2359 -75 1813 -75 
Q 947 -75 531 491 
Q 203 944 203 1634 
Q 203 2459 634 2926 
Q 1066 3394 1725 3394 
Q 2466 3394 2894 2905 
Q 3322 2416 3303 1406 
L 1103 1406 
Q 1113 1016 1316 798 
Q 1519 581 1822 581 
Q 2028 581 2168 693 
Q 2309 806 2381 1056 
z
M 2431 1944 
Q 2422 2325 2234 2523 
Q 2047 2722 1778 2722 
Q 1491 2722 1303 2513 
Q 1116 2303 1119 1944 
L 2431 1944 
z
" transform="scale(0.015625)"/>
       <path id="Arial-BoldMT-6f" d="M 256 1706 
Q 256 2144 472 2553 
Q 688 2963 1083 3178 
Q 1478 3394 1966 3394 
Q 2719 3394 3200 2905 
Q 3681 2416 3681 1669 
Q 3681 916 3195 420 
Q 2709 -75 1972 -75 
Q 1516 -75 1102 131 
Q 688 338 472 736 
Q 256 1134 256 1706 
z
M 1156 1659 
Q 1156 1166 1390 903 
Q 1625 641 1969 641 
Q 2313 641 2545 903 
Q 2778 1166 2778 1666 
Q 2778 2153 2545 2415 
Q 2313 2678 1969 2678 
Q 1625 2678 1390 2415 
Q 1156 2153 1156 1659 
z
" transform="scale(0.015625)"/>
       <path id="Arial-BoldMT-6c" d="M 459 0 
L 459 4581 
L 1338 4581 
L 1338 0 
L 459 0 
z
" transform="scale(0.015625)"/>
       <path id="Arial-BoldMT-67" d="M 378 -219 
L 1381 -341 
Q 1406 -516 1497 -581 
Q 1622 -675 1891 -675 
Q 2234 -675 2406 -572 
Q 2522 -503 2581 -350 
Q 2622 -241 2622 53 
L 2622 538 
Q 2228 0 1628 0 
Q 959 0 569 566 
Q 263 1013 263 1678 
Q 263 2513 664 2953 
Q 1066 3394 1663 3394 
Q 2278 3394 2678 2853 
L 2678 3319 
L 3500 3319 
L 3500 341 
Q 3500 -247 3403 -537 
Q 3306 -828 3131 -993 
Q 2956 -1159 2664 -1253 
Q 2372 -1347 1925 -1347 
Q 1081 -1347 728 -1058 
Q 375 -769 375 -325 
Q 375 -281 378 -219 
z
M 1163 1728 
Q 1163 1200 1367 954 
Q 1572 709 1872 709 
Q 2194 709 2416 961 
Q 2638 1213 2638 1706 
Q 2638 2222 2425 2472 
Q 2213 2722 1888 2722 
Q 1572 2722 1367 2476 
Q 1163 2231 1163 1728 
z
" transform="scale(0.015625)"/>
       <path id="Arial-BoldMT-69" d="M 459 3769 
L 459 4581 
L 1338 4581 
L 1338 3769 
L 459 3769 
z
M 459 0 
L 459 3319 
L 1338 3319 
L 1338 0 
L 459 0 
z
" transform="scale(0.015625)"/>
       <path id="Arial-BoldMT-63" d="M 3353 2338 
L 2488 2181 
Q 2444 2441 2289 2572 
Q 2134 2703 1888 2703 
Q 1559 2703 1364 2476 
Q 1169 2250 1169 1719 
Q 1169 1128 1367 884 
Q 1566 641 1900 641 
Q 2150 641 2309 783 
Q 2469 925 2534 1272 
L 3397 1125 
Q 3263 531 2881 228 
Q 2500 -75 1859 -75 
Q 1131 -75 698 384 
Q 266 844 266 1656 
Q 266 2478 700 2936 
Q 1134 3394 1875 3394 
Q 2481 3394 2839 3133 
Q 3197 2872 3353 2338 
z
" transform="scale(0.015625)"/>
       <path id="Arial-BoldMT-61" d="M 1116 2306 
L 319 2450 
Q 453 2931 781 3162 
Q 1109 3394 1756 3394 
Q 2344 3394 2631 3255 
Q 2919 3116 3036 2902 
Q 3153 2688 3153 2116 
L 3144 1091 
Q 3144 653 3186 445 
Q 3228 238 3344 0 
L 2475 0 
Q 2441 88 2391 259 
Q 2369 338 2359 363 
Q 2134 144 1878 34 
Q 1622 -75 1331 -75 
Q 819 -75 523 203 
Q 228 481 228 906 
Q 228 1188 362 1408 
Q 497 1628 739 1745 
Q 981 1863 1438 1950 
Q 2053 2066 2291 2166 
L 2291 2253 
Q 2291 2506 2166 2614 
Q 2041 2722 1694 2722 
Q 1459 2722 1328 2630 
Q 1197 2538 1116 2306 
z
M 2291 1594 
Q 2122 1538 1756 1459 
Q 1391 1381 1278 1306 
Q 1106 1184 1106 997 
Q 1106 813 1243 678 
Q 1381 544 1594 544 
Q 1831 544 2047 700 
Q 2206 819 2256 991 
Q 2291 1103 2291 1419 
L 2291 1594 
z
" transform="scale(0.015625)"/>
       <path id="Arial-BoldMT-20" transform="scale(0.015625)"/>
       <path id="Arial-BoldMT-50" d="M 466 0 
L 466 4581 
L 1950 4581 
Q 2794 4581 3050 4513 
Q 3444 4409 3709 4064 
Q 3975 3719 3975 3172 
Q 3975 2750 3822 2462 
Q 3669 2175 3433 2011 
Q 3197 1847 2953 1794 
Q 2622 1728 1994 1728 
L 1391 1728 
L 1391 0 
L 466 0 
z
M 1391 3806 
L 1391 2506 
L 1897 2506 
Q 2444 2506 2628 2578 
Q 2813 2650 2917 2803 
Q 3022 2956 3022 3159 
Q 3022 3409 2875 3571 
Q 2728 3734 2503 3775 
Q 2338 3806 1838 3806 
L 1391 3806 
z
" transform="scale(0.015625)"/>
       <path id="Arial-BoldMT-73" d="M 150 947 
L 1031 1081 
Q 1088 825 1259 692 
Q 1431 559 1741 559 
Q 2081 559 2253 684 
Q 2369 772 2369 919 
Q 2369 1019 2306 1084 
Q 2241 1147 2013 1200 
Q 950 1434 666 1628 
Q 272 1897 272 2375 
Q 272 2806 612 3100 
Q 953 3394 1669 3394 
Q 2350 3394 2681 3172 
Q 3013 2950 3138 2516 
L 2309 2363 
Q 2256 2556 2107 2659 
Q 1959 2763 1684 2763 
Q 1338 2763 1188 2666 
Q 1088 2597 1088 2488 
Q 1088 2394 1175 2328 
Q 1294 2241 1995 2081 
Q 2697 1922 2975 1691 
Q 3250 1456 3250 1038 
Q 3250 581 2869 253 
Q 2488 -75 1741 -75 
Q 1063 -75 667 200 
Q 272 475 150 947 
z
" transform="scale(0.015625)"/>
       <path id="Arial-BoldMT-74" d="M 1981 3319 
L 1981 2619 
L 1381 2619 
L 1381 1281 
Q 1381 875 1398 808 
Q 1416 741 1477 697 
Q 1538 653 1625 653 
Q 1747 653 1978 738 
L 2053 56 
Q 1747 -75 1359 -75 
Q 1122 -75 931 4 
Q 741 84 652 211 
Q 563 338 528 553 
Q 500 706 500 1172 
L 500 2619 
L 97 2619 
L 97 3319 
L 500 3319 
L 500 3978 
L 1381 4491 
L 1381 3319 
L 1981 3319 
z
" transform="scale(0.015625)"/>
       <path id="Arial-BoldMT-6e" d="M 3478 0 
L 2600 0 
L 2600 1694 
Q 2600 2231 2544 2389 
Q 2488 2547 2361 2634 
Q 2234 2722 2056 2722 
Q 1828 2722 1647 2597 
Q 1466 2472 1398 2265 
Q 1331 2059 1331 1503 
L 1331 0 
L 453 0 
L 453 3319 
L 1269 3319 
L 1269 2831 
Q 1703 3394 2363 3394 
Q 2653 3394 2893 3289 
Q 3134 3184 3257 3021 
Q 3381 2859 3429 2653 
Q 3478 2447 3478 2063 
L 3478 0 
z
" transform="scale(0.015625)"/>
       <path id="Arial-BoldMT-78" d="M 38 0 
L 1234 1709 
L 88 3319 
L 1159 3319 
L 1747 2406 
L 2366 3319 
L 3397 3319 
L 2272 1747 
L 3500 0 
L 2422 0 
L 1747 1028 
L 1066 0 
L 38 0 
z
" transform="scale(0.015625)"/>
       <path id="Arial-BoldMT-28" d="M 1916 -1347 
L 1313 -1347 
Q 834 -625 584 153 
Q 334 931 334 1659 
Q 334 2563 644 3369 
Q 913 4069 1325 4659 
L 1925 4659 
Q 1497 3713 1336 3048 
Q 1175 2384 1175 1641 
Q 1175 1128 1270 590 
Q 1366 53 1531 -431 
Q 1641 -750 1916 -1347 
z
" transform="scale(0.015625)"/>
       <path id="Arial-BoldMT-29" d="M 216 -1347 
Q 475 -791 581 -494 
Q 688 -197 778 190 
Q 869 578 912 926 
Q 956 1275 956 1641 
Q 956 2384 797 3048 
Q 638 3713 209 4659 
L 806 4659 
Q 1278 3988 1539 3234 
Q 1800 2481 1800 1706 
Q 1800 1053 1594 306 
Q 1359 -531 822 -1347 
L 216 -1347 
z
" transform="scale(0.015625)"/>
      </defs>
      <use xlink:href="#Arial-BoldMT-49"/>
      <use xlink:href="#Arial-BoldMT-64" transform="translate(27.783203 0)"/>
      <use xlink:href="#Arial-BoldMT-65" transform="translate(88.867188 0)"/>
      <use xlink:href="#Arial-BoldMT-6f" transform="translate(144.482422 0)"/>
      <use xlink:href="#Arial-BoldMT-6c" transform="translate(205.566406 0)"/>
      <use xlink:href="#Arial-BoldMT-6f" transform="translate(233.349609 0)"/>
      <use xlink:href="#Arial-BoldMT-67" transform="translate(294.433594 0)"/>
      <use xlink:href="#Arial-BoldMT-69" transform="translate(355.517578 0)"/>
      <use xlink:href="#Arial-BoldMT-63" transform="translate(383.300781 0)"/>
      <use xlink:href="#Arial-BoldMT-61" transform="translate(438.916016 0)"/>
      <use xlink:href="#Arial-BoldMT-6c" transform="translate(494.53125 0)"/>
      <use xlink:href="#Arial-BoldMT-20" transform="translate(522.314453 0)"/>
      <use xlink:href="#Arial-BoldMT-50" transform="translate(550.097656 0)"/>
      <use xlink:href="#Arial-BoldMT-6f" transform="translate(616.796875 0)"/>
      <use xlink:href="#Arial-BoldMT-73" transform="translate(677.880859 0)"/>
      <use xlink:href="#Arial-BoldMT-69" transform="translate(733.496094 0)"/>
      <use xlink:href="#Arial-BoldMT-74" transform="translate(761.279297 0)"/>
      <use xlink:href="#Arial-BoldMT-69" transform="translate(794.580078 0)"/>
      <use xlink:href="#Arial-BoldMT-6f" transform="translate(822.363281 0)"/>
      <use xlink:href="#Arial-BoldMT-6e" transform="translate(883.447266 0)"/>
      <use xlink:href="#Arial-BoldMT-20" transform="translate(944.53125 0)"/>
      <use xlink:href="#Arial-BoldMT-49" transform="translate(972.314453 0)"/>
      <use xlink:href="#Arial-BoldMT-6e" transform="translate(1000.097656 0)"/>
      <use xlink:href="#Arial-BoldMT-64" transform="translate(1061.181641 0)"/>
      <use xlink:href="#Arial-BoldMT-65" transform="translate(1122.265625 0)"/>
      <use xlink:href="#Arial-BoldMT-78" transform="translate(1177.880859 0)"/>
      <use xlink:href="#Arial-BoldMT-20" transform="translate(1233.496094 0)"/>
      <use xlink:href="#Arial-BoldMT-28" transform="translate(1261.279297 0)"/>
      <use xlink:href="#Arial-BoldMT-49" transform="translate(1294.580078 0)"/>
      <use xlink:href="#Arial-BoldMT-50" transform="translate(1322.363281 0)"/>
      <use xlink:href="#Arial-BoldMT-49" transform="translate(1389.0625 0)"/>
      <use xlink:href="#Arial-BoldMT-29" transform="translate(1416.845703 0)"/>
     </g>
    </g>
   </g>
   <g id="matplotlib.axis_2">
    <g id="ytick_1">
     <g id="line2d_6">
      <path d="M 103.82875 560.535043 
L 579.360515 560.535043 
" clip-path="url(#p1cf4074285)" style="fill: none; stroke: #cccccc; stroke-linecap: round"/>
     </g>
     <g id="text_7">
      <!-- Welfare -->
      <g style="fill: #262626" transform="translate(39.48625 566.261293) scale(0.16 -0.16)">
       <defs>
        <path id="ArialMT-57" d="M 1294 0 
L 78 4581 
L 700 4581 
L 1397 1578 
Q 1509 1106 1591 641 
Q 1766 1375 1797 1488 
L 2669 4581 
L 3400 4581 
L 4056 2263 
Q 4303 1400 4413 641 
Q 4500 1075 4641 1638 
L 5359 4581 
L 5969 4581 
L 4713 0 
L 4128 0 
L 3163 3491 
Q 3041 3928 3019 4028 
Q 2947 3713 2884 3491 
L 1913 0 
L 1294 0 
z
" transform="scale(0.015625)"/>
        <path id="ArialMT-65" d="M 2694 1069 
L 3275 997 
Q 3138 488 2766 206 
Q 2394 -75 1816 -75 
Q 1088 -75 661 373 
Q 234 822 234 1631 
Q 234 2469 665 2931 
Q 1097 3394 1784 3394 
Q 2450 3394 2872 2941 
Q 3294 2488 3294 1666 
Q 3294 1616 3291 1516 
L 816 1516 
Q 847 969 1125 678 
Q 1403 388 1819 388 
Q 2128 388 2347 550 
Q 2566 713 2694 1069 
z
M 847 1978 
L 2700 1978 
Q 2663 2397 2488 2606 
Q 2219 2931 1791 2931 
Q 1403 2931 1139 2672 
Q 875 2413 847 1978 
z
" transform="scale(0.015625)"/>
        <path id="ArialMT-6c" d="M 409 0 
L 409 4581 
L 972 4581 
L 972 0 
L 409 0 
z
" transform="scale(0.015625)"/>
        <path id="ArialMT-66" d="M 556 0 
L 556 2881 
L 59 2881 
L 59 3319 
L 556 3319 
L 556 3672 
Q 556 4006 616 4169 
Q 697 4388 901 4523 
Q 1106 4659 1475 4659 
Q 1713 4659 2000 4603 
L 1916 4113 
Q 1741 4144 1584 4144 
Q 1328 4144 1222 4034 
Q 1116 3925 1116 3625 
L 1116 3319 
L 1763 3319 
L 1763 2881 
L 1116 2881 
L 1116 0 
L 556 0 
z
" transform="scale(0.015625)"/>
        <path id="ArialMT-61" d="M 2588 409 
Q 2275 144 1986 34 
Q 1697 -75 1366 -75 
Q 819 -75 525 192 
Q 231 459 231 875 
Q 231 1119 342 1320 
Q 453 1522 633 1644 
Q 813 1766 1038 1828 
Q 1203 1872 1538 1913 
Q 2219 1994 2541 2106 
Q 2544 2222 2544 2253 
Q 2544 2597 2384 2738 
Q 2169 2928 1744 2928 
Q 1347 2928 1158 2789 
Q 969 2650 878 2297 
L 328 2372 
Q 403 2725 575 2942 
Q 747 3159 1072 3276 
Q 1397 3394 1825 3394 
Q 2250 3394 2515 3294 
Q 2781 3194 2906 3042 
Q 3031 2891 3081 2659 
Q 3109 2516 3109 2141 
L 3109 1391 
Q 3109 606 3145 398 
Q 3181 191 3288 0 
L 2700 0 
Q 2613 175 2588 409 
z
M 2541 1666 
Q 2234 1541 1622 1453 
Q 1275 1403 1131 1340 
Q 988 1278 909 1158 
Q 831 1038 831 891 
Q 831 666 1001 516 
Q 1172 366 1500 366 
Q 1825 366 2078 508 
Q 2331 650 2450 897 
Q 2541 1088 2541 1459 
L 2541 1666 
z
" transform="scale(0.015625)"/>
        <path id="ArialMT-72" d="M 416 0 
L 416 3319 
L 922 3319 
L 922 2816 
Q 1116 3169 1280 3281 
Q 1444 3394 1641 3394 
Q 1925 3394 2219 3213 
L 2025 2691 
Q 1819 2813 1613 2813 
Q 1428 2813 1281 2702 
Q 1134 2591 1072 2394 
Q 978 2094 978 1738 
L 978 0 
L 416 0 
z
" transform="scale(0.015625)"/>
       </defs>
       <use xlink:href="#ArialMT-57"/>
       <use xlink:href="#ArialMT-65" transform="translate(92.634766 0)"/>
       <use xlink:href="#ArialMT-6c" transform="translate(148.25 0)"/>
       <use xlink:href="#ArialMT-66" transform="translate(170.466797 0)"/>
       <use xlink:href="#ArialMT-61" transform="translate(198.25 0)"/>
       <use xlink:href="#ArialMT-72" transform="translate(253.865234 0)"/>
       <use xlink:href="#ArialMT-65" transform="translate(287.166016 0)"/>
      </g>
     </g>
    </g>
    <g id="ytick_2">
     <g id="line2d_7">
      <path d="M 103.82875 310.771406 
L 579.360515 310.771406 
" clip-path="url(#p1cf4074285)" style="fill: none; stroke: #cccccc; stroke-linecap: round"/>
     </g>
     <g id="text_8">
      <!-- Economy -->
      <g style="fill: #262626" transform="translate(27.63625 316.497656) scale(0.16 -0.16)">
       <defs>
        <path id="ArialMT-45" d="M 506 0 
L 506 4581 
L 3819 4581 
L 3819 4041 
L 1113 4041 
L 1113 2638 
L 3647 2638 
L 3647 2100 
L 1113 2100 
L 1113 541 
L 3925 541 
L 3925 0 
L 506 0 
z
" transform="scale(0.015625)"/>
        <path id="ArialMT-63" d="M 2588 1216 
L 3141 1144 
Q 3050 572 2676 248 
Q 2303 -75 1759 -75 
Q 1078 -75 664 370 
Q 250 816 250 1647 
Q 250 2184 428 2587 
Q 606 2991 970 3192 
Q 1334 3394 1763 3394 
Q 2303 3394 2647 3120 
Q 2991 2847 3088 2344 
L 2541 2259 
Q 2463 2594 2264 2762 
Q 2066 2931 1784 2931 
Q 1359 2931 1093 2626 
Q 828 2322 828 1663 
Q 828 994 1084 691 
Q 1341 388 1753 388 
Q 2084 388 2306 591 
Q 2528 794 2588 1216 
z
" transform="scale(0.015625)"/>
        <path id="ArialMT-6f" d="M 213 1659 
Q 213 2581 725 3025 
Q 1153 3394 1769 3394 
Q 2453 3394 2887 2945 
Q 3322 2497 3322 1706 
Q 3322 1066 3130 698 
Q 2938 331 2570 128 
Q 2203 -75 1769 -75 
Q 1072 -75 642 372 
Q 213 819 213 1659 
z
M 791 1659 
Q 791 1022 1069 705 
Q 1347 388 1769 388 
Q 2188 388 2466 706 
Q 2744 1025 2744 1678 
Q 2744 2294 2464 2611 
Q 2184 2928 1769 2928 
Q 1347 2928 1069 2612 
Q 791 2297 791 1659 
z
" transform="scale(0.015625)"/>
        <path id="ArialMT-6e" d="M 422 0 
L 422 3319 
L 928 3319 
L 928 2847 
Q 1294 3394 1984 3394 
Q 2284 3394 2536 3286 
Q 2788 3178 2913 3003 
Q 3038 2828 3088 2588 
Q 3119 2431 3119 2041 
L 3119 0 
L 2556 0 
L 2556 2019 
Q 2556 2363 2490 2533 
Q 2425 2703 2258 2804 
Q 2091 2906 1866 2906 
Q 1506 2906 1245 2678 
Q 984 2450 984 1813 
L 984 0 
L 422 0 
z
" transform="scale(0.015625)"/>
        <path id="ArialMT-6d" d="M 422 0 
L 422 3319 
L 925 3319 
L 925 2853 
Q 1081 3097 1340 3245 
Q 1600 3394 1931 3394 
Q 2300 3394 2536 3241 
Q 2772 3088 2869 2813 
Q 3263 3394 3894 3394 
Q 4388 3394 4653 3120 
Q 4919 2847 4919 2278 
L 4919 0 
L 4359 0 
L 4359 2091 
Q 4359 2428 4304 2576 
Q 4250 2725 4106 2815 
Q 3963 2906 3769 2906 
Q 3419 2906 3187 2673 
Q 2956 2441 2956 1928 
L 2956 0 
L 2394 0 
L 2394 2156 
Q 2394 2531 2256 2718 
Q 2119 2906 1806 2906 
Q 1569 2906 1367 2781 
Q 1166 2656 1075 2415 
Q 984 2175 984 1722 
L 984 0 
L 422 0 
z
" transform="scale(0.015625)"/>
        <path id="ArialMT-79" d="M 397 -1278 
L 334 -750 
Q 519 -800 656 -800 
Q 844 -800 956 -737 
Q 1069 -675 1141 -563 
Q 1194 -478 1313 -144 
Q 1328 -97 1363 -6 
L 103 3319 
L 709 3319 
L 1400 1397 
Q 1534 1031 1641 628 
Q 1738 1016 1872 1384 
L 2581 3319 
L 3144 3319 
L 1881 -56 
Q 1678 -603 1566 -809 
Q 1416 -1088 1222 -1217 
Q 1028 -1347 759 -1347 
Q 597 -1347 397 -1278 
z
" transform="scale(0.015625)"/>
       </defs>
       <use xlink:href="#ArialMT-45"/>
       <use xlink:href="#ArialMT-63" transform="translate(66.699219 0)"/>
       <use xlink:href="#ArialMT-6f" transform="translate(116.699219 0)"/>
       <use xlink:href="#ArialMT-6e" transform="translate(172.314453 0)"/>
       <use xlink:href="#ArialMT-6f" transform="translate(227.929688 0)"/>
       <use xlink:href="#ArialMT-6d" transform="translate(283.544922 0)"/>
       <use xlink:href="#ArialMT-79" transform="translate(366.845703 0)"/>
      </g>
     </g>
    </g>
    <g id="ytick_3">
     <g id="line2d_8">
      <path d="M 103.82875 61.00777 
L 579.360515 61.00777 
" clip-path="url(#p1cf4074285)" style="fill: none; stroke: #cccccc; stroke-linecap: round"/>
     </g>
     <g id="text_9">
      <!-- Security -->
      <g style="fill: #262626" transform="translate(36.53375 66.83152) scale(0.16 -0.16)">
       <defs>
        <path id="ArialMT-53" d="M 288 1472 
L 859 1522 
Q 900 1178 1048 958 
Q 1197 738 1509 602 
Q 1822 466 2213 466 
Q 2559 466 2825 569 
Q 3091 672 3220 851 
Q 3350 1031 3350 1244 
Q 3350 1459 3225 1620 
Q 3100 1781 2813 1891 
Q 2628 1963 1997 2114 
Q 1366 2266 1113 2400 
Q 784 2572 623 2826 
Q 463 3081 463 3397 
Q 463 3744 659 4045 
Q 856 4347 1234 4503 
Q 1613 4659 2075 4659 
Q 2584 4659 2973 4495 
Q 3363 4331 3572 4012 
Q 3781 3694 3797 3291 
L 3216 3247 
Q 3169 3681 2898 3903 
Q 2628 4125 2100 4125 
Q 1550 4125 1298 3923 
Q 1047 3722 1047 3438 
Q 1047 3191 1225 3031 
Q 1400 2872 2139 2705 
Q 2878 2538 3153 2413 
Q 3553 2228 3743 1945 
Q 3934 1663 3934 1294 
Q 3934 928 3725 604 
Q 3516 281 3123 101 
Q 2731 -78 2241 -78 
Q 1619 -78 1198 103 
Q 778 284 539 648 
Q 300 1013 288 1472 
z
" transform="scale(0.015625)"/>
        <path id="ArialMT-75" d="M 2597 0 
L 2597 488 
Q 2209 -75 1544 -75 
Q 1250 -75 995 37 
Q 741 150 617 320 
Q 494 491 444 738 
Q 409 903 409 1263 
L 409 3319 
L 972 3319 
L 972 1478 
Q 972 1038 1006 884 
Q 1059 663 1231 536 
Q 1403 409 1656 409 
Q 1909 409 2131 539 
Q 2353 669 2445 892 
Q 2538 1116 2538 1541 
L 2538 3319 
L 3100 3319 
L 3100 0 
L 2597 0 
z
" transform="scale(0.015625)"/>
        <path id="ArialMT-69" d="M 425 3934 
L 425 4581 
L 988 4581 
L 988 3934 
L 425 3934 
z
M 425 0 
L 425 3319 
L 988 3319 
L 988 0 
L 425 0 
z
" transform="scale(0.015625)"/>
        <path id="ArialMT-74" d="M 1650 503 
L 1731 6 
Q 1494 -44 1306 -44 
Q 1000 -44 831 53 
Q 663 150 594 308 
Q 525 466 525 972 
L 525 2881 
L 113 2881 
L 113 3319 
L 525 3319 
L 525 4141 
L 1084 4478 
L 1084 3319 
L 1650 3319 
L 1650 2881 
L 1084 2881 
L 1084 941 
Q 1084 700 1114 631 
Q 1144 563 1211 522 
Q 1278 481 1403 481 
Q 1497 481 1650 503 
z
" transform="scale(0.015625)"/>
       </defs>
       <use xlink:href="#ArialMT-53"/>
       <use xlink:href="#ArialMT-65" transform="translate(66.699219 0)"/>
       <use xlink:href="#ArialMT-63" transform="translate(122.314453 0)"/>
       <use xlink:href="#ArialMT-75" transform="translate(172.314453 0)"/>
       <use xlink:href="#ArialMT-72" transform="translate(227.929688 0)"/>
       <use xlink:href="#ArialMT-69" transform="translate(261.230469 0)"/>
       <use xlink:href="#ArialMT-74" transform="translate(283.447266 0)"/>
       <use xlink:href="#ArialMT-79" transform="translate(311.230469 0)"/>
      </g>
     </g>
    </g>
    <g id="text_10">
     <!-- Topic -->
     <g style="fill: #262626" transform="translate(20.084063 334.103906) rotate(-90) scale(0.18 -0.18)">
      <defs>
       <path id="Arial-BoldMT-54" d="M 1497 0 
L 1497 3806 
L 138 3806 
L 138 4581 
L 3778 4581 
L 3778 3806 
L 2422 3806 
L 2422 0 
L 1497 0 
z
" transform="scale(0.015625)"/>
       <path id="Arial-BoldMT-70" d="M 434 3319 
L 1253 3319 
L 1253 2831 
Q 1413 3081 1684 3237 
Q 1956 3394 2288 3394 
Q 2866 3394 3269 2941 
Q 3672 2488 3672 1678 
Q 3672 847 3265 386 
Q 2859 -75 2281 -75 
Q 2006 -75 1782 34 
Q 1559 144 1313 409 
L 1313 -1263 
L 434 -1263 
L 434 3319 
z
M 1303 1716 
Q 1303 1156 1525 889 
Q 1747 622 2066 622 
Q 2372 622 2575 867 
Q 2778 1113 2778 1672 
Q 2778 2194 2568 2447 
Q 2359 2700 2050 2700 
Q 1728 2700 1515 2451 
Q 1303 2203 1303 1716 
z
" transform="scale(0.015625)"/>
      </defs>
      <use xlink:href="#Arial-BoldMT-54"/>
      <use xlink:href="#Arial-BoldMT-6f" transform="translate(53.708984 0)"/>
      <use xlink:href="#Arial-BoldMT-70" transform="translate(114.792969 0)"/>
      <use xlink:href="#Arial-BoldMT-69" transform="translate(175.876953 0)"/>
      <use xlink:href="#Arial-BoldMT-63" transform="translate(203.660156 0)"/>
     </g>
    </g>
   </g>
   <g id="line2d_9">
    <path d="M 362.476435 585.511406 
L 362.476435 36.031406 
" clip-path="url(#p1cf4074285)" style="fill: none; stroke-dasharray: 5.55,2.4; stroke-dashoffset: 0; stroke: #000000; stroke-opacity: 0.5; stroke-width: 1.5"/>
   </g>
   <g id="patch_3">
    <path d="M 103.82875 585.511406 
L 103.82875 36.031406 
" style="fill: none; stroke: #cccccc; stroke-width: 1.25; stroke-linejoin: miter; stroke-linecap: square"/>
   </g>
   <g id="patch_4">
    <path d="M 579.360515 585.511406 
L 579.360515 36.031406 
" style="fill: none; stroke: #cccccc; stroke-width: 1.25; stroke-linejoin: miter; stroke-linecap: square"/>
   </g>
   <g id="patch_5">
    <path d="M 103.82875 585.511406 
L 579.360515 585.511406 
" style="fill: none; stroke: #cccccc; stroke-width: 1.25; stroke-linejoin: miter; stroke-linecap: square"/>
   </g>
   <g id="patch_6">
    <path d="M 103.82875 36.031406 
L 579.360515 36.031406 
" style="fill: none; stroke: #cccccc; stroke-width: 1.25; stroke-linejoin: miter; stroke-linecap: square"/>
   </g>
   <g id="LineCollection_1">
    <path d="M 148.785631 560.535043 
L 323.833912 560.535043 
" clip-path="url(#p1cf4074285)" style="fill: none"/>
    <path d="M 195.502754 310.771406 
L 381.530579 310.771406 
" clip-path="url(#p1cf4074285)" style="fill: none"/>
    <path d="M 143.456397 61.00777 
L 337.864295 61.00777 
" clip-path="url(#p1cf4074285)" style="fill: none"/>
   </g>
   <g id="line2d_10">
    <defs>
     <path id="mfd8b25a6be" d="M 0 4 
L 0 -4 
" style="stroke: #e74c3c; stroke-opacity: 0.8; stroke-width: 1.5"/>
    </defs>
    <g clip-path="url(#p1cf4074285)">
     <use xlink:href="#mfd8b25a6be" x="148.785631" y="560.535043" style="fill: #e74c3c; fill-opacity: 0.8; stroke: #e74c3c; stroke-opacity: 0.8; stroke-width: 1.5"/>
     <use xlink:href="#mfd8b25a6be" x="195.502754" y="310.771406" style="fill: #e74c3c; fill-opacity: 0.8; stroke: #e74c3c; stroke-opacity: 0.8; stroke-width: 1.5"/>
     <use xlink:href="#mfd8b25a6be" x="143.456397" y="61.00777" style="fill: #e74c3c; fill-opacity: 0.8; stroke: #e74c3c; stroke-opacity: 0.8; stroke-width: 1.5"/>
    </g>
   </g>
   <g id="line2d_11">
    <g clip-path="url(#p1cf4074285)">
     <use xlink:href="#mfd8b25a6be" x="323.833912" y="560.535043" style="fill: #e74c3c; fill-opacity: 0.8; stroke: #e74c3c; stroke-opacity: 0.8; stroke-width: 1.5"/>
     <use xlink:href="#mfd8b25a6be" x="381.530579" y="310.771406" style="fill: #e74c3c; fill-opacity: 0.8; stroke: #e74c3c; stroke-opacity: 0.8; stroke-width: 1.5"/>
     <use xlink:href="#mfd8b25a6be" x="337.864295" y="61.00777" style="fill: #e74c3c; fill-opacity: 0.8; stroke: #e74c3c; stroke-opacity: 0.8; stroke-width: 1.5"/>
    </g>
   </g>
   <g id="text_11">
    <!-- A -->
    <g style="fill: #262626" transform="translate(15.166485 25.736156) scale(0.24 -0.24)">
     <defs>
      <path id="Arial-BoldMT-41" d="M 4597 0 
L 3591 0 
L 3191 1041 
L 1359 1041 
L 981 0 
L 0 0 
L 1784 4581 
L 2763 4581 
L 4597 0 
z
M 2894 1813 
L 2263 3513 
L 1644 1813 
L 2894 1813 
z
" transform="scale(0.015625)"/>
     </defs>
     <use xlink:href="#Arial-BoldMT-41"/>
    </g>
   </g>
   <g id="text_12">
    <!-- Left-Wing User -->
    <g style="fill: #262626" transform="translate(274.128304 21.031406) scale(0.19 -0.19)">
     <defs>
      <path id="Arial-BoldMT-4c" d="M 491 0 
L 491 4544 
L 1416 4544 
L 1416 772 
L 3716 772 
L 3716 0 
L 491 0 
z
" transform="scale(0.015625)"/>
      <path id="Arial-BoldMT-66" d="M 75 3319 
L 563 3319 
L 563 3569 
Q 563 3988 652 4194 
Q 741 4400 980 4529 
Q 1219 4659 1584 4659 
Q 1959 4659 2319 4547 
L 2200 3934 
Q 1991 3984 1797 3984 
Q 1606 3984 1523 3895 
Q 1441 3806 1441 3553 
L 1441 3319 
L 2097 3319 
L 2097 2628 
L 1441 2628 
L 1441 0 
L 563 0 
L 563 2628 
L 75 2628 
L 75 3319 
z
" transform="scale(0.015625)"/>
      <path id="Arial-BoldMT-2d" d="M 359 1222 
L 359 2100 
L 2084 2100 
L 2084 1222 
L 359 1222 
z
" transform="scale(0.015625)"/>
      <path id="Arial-BoldMT-57" d="M 1116 0 
L 22 4581 
L 969 4581 
L 1659 1434 
L 2497 4581 
L 3597 4581 
L 4400 1381 
L 5103 4581 
L 6034 4581 
L 4922 0 
L 3941 0 
L 3028 3425 
L 2119 0 
L 1116 0 
z
" transform="scale(0.015625)"/>
      <path id="Arial-BoldMT-55" d="M 459 4581 
L 1384 4581 
L 1384 2100 
Q 1384 1509 1419 1334 
Q 1478 1053 1701 883 
Q 1925 713 2313 713 
Q 2706 713 2906 873 
Q 3106 1034 3147 1268 
Q 3188 1503 3188 2047 
L 3188 4581 
L 4113 4581 
L 4113 2175 
Q 4113 1350 4038 1009 
Q 3963 669 3761 434 
Q 3559 200 3221 61 
Q 2884 -78 2341 -78 
Q 1684 -78 1345 73 
Q 1006 225 809 467 
Q 613 709 550 975 
Q 459 1369 459 2138 
L 459 4581 
z
" transform="scale(0.015625)"/>
      <path id="Arial-BoldMT-72" d="M 1300 0 
L 422 0 
L 422 3319 
L 1238 3319 
L 1238 2847 
Q 1447 3181 1614 3287 
Q 1781 3394 1994 3394 
Q 2294 3394 2572 3228 
L 2300 2463 
Q 2078 2606 1888 2606 
Q 1703 2606 1575 2504 
Q 1447 2403 1373 2137 
Q 1300 1872 1300 1025 
L 1300 0 
z
" transform="scale(0.015625)"/>
     </defs>
     <use xlink:href="#Arial-BoldMT-4c"/>
     <use xlink:href="#Arial-BoldMT-65" transform="translate(61.083984 0)"/>
     <use xlink:href="#Arial-BoldMT-66" transform="translate(116.699219 0)"/>
     <use xlink:href="#Arial-BoldMT-74" transform="translate(150 0)"/>
     <use xlink:href="#Arial-BoldMT-2d" transform="translate(183.300781 0)"/>
     <use xlink:href="#Arial-BoldMT-57" transform="translate(216.601562 0)"/>
     <use xlink:href="#Arial-BoldMT-69" transform="translate(310.111328 0)"/>
     <use xlink:href="#Arial-BoldMT-6e" transform="translate(337.894531 0)"/>
     <use xlink:href="#Arial-BoldMT-67" transform="translate(398.978516 0)"/>
     <use xlink:href="#Arial-BoldMT-20" transform="translate(460.0625 0)"/>
     <use xlink:href="#Arial-BoldMT-55" transform="translate(487.845703 0)"/>
     <use xlink:href="#Arial-BoldMT-73" transform="translate(560.0625 0)"/>
     <use xlink:href="#Arial-BoldMT-65" transform="translate(615.677734 0)"/>
     <use xlink:href="#Arial-BoldMT-72" transform="translate(671.292969 0)"/>
    </g>
   </g>
   <g id="line2d_12">
    <defs>
     <path id="m0c7234473f" d="M 0 7 
C 1.856422 7 3.637059 6.262436 4.949747 4.949747 
C 6.262436 3.637059 7 1.856422 7 0 
C 7 -1.856422 6.262436 -3.637059 4.949747 -4.949747 
C 3.637059 -6.262436 1.856422 -7 0 -7 
C -1.856422 -7 -3.637059 -6.262436 -4.949747 -4.949747 
C -6.262436 -3.637059 -7 -1.856422 -7 0 
C -7 1.856422 -6.262436 3.637059 -4.949747 4.949747 
C -3.637059 6.262436 -1.856422 7 0 7 
z
" style="stroke: #e74c3c; stroke-opacity: 0.8"/>
    </defs>
    <g clip-path="url(#p1cf4074285)">
     <use xlink:href="#m0c7234473f" x="236.309771" y="560.535043" style="fill: #e74c3c; fill-opacity: 0.8; stroke: #e74c3c; stroke-opacity: 0.8"/>
     <use xlink:href="#m0c7234473f" x="288.516666" y="310.771406" style="fill: #e74c3c; fill-opacity: 0.8; stroke: #e74c3c; stroke-opacity: 0.8"/>
     <use xlink:href="#m0c7234473f" x="240.660346" y="61.00777" style="fill: #e74c3c; fill-opacity: 0.8; stroke: #e74c3c; stroke-opacity: 0.8"/>
    </g>
   </g>
  </g>
  <g id="axes_2">
   <g id="patch_7">
    <path d="M 668.727868 585.511406 
L 1144.259632 585.511406 
L 1144.259632 36.031406 
L 668.727868 36.031406 
z
" style="fill: #ffffff"/>
   </g>
   <g id="matplotlib.axis_3">
    <g id="xtick_6">
     <g id="line2d_13">
      <path d="M 718.547972 585.511406 
L 718.547972 36.031406 
" clip-path="url(#pcca2aab98d)" style="fill: none; stroke-dasharray: 1,1.65; stroke-dashoffset: 0; stroke: #cccccc; stroke-opacity: 0.3"/>
     </g>
     <g id="text_13">
      <!-- −4 -->
      <g style="fill: #262626" transform="translate(710.566878 605.032344) scale(0.14 -0.14)">
       <use xlink:href="#ArialMT-2212"/>
       <use xlink:href="#ArialMT-34" transform="translate(58.398438 0)"/>
      </g>
     </g>
    </g>
    <g id="xtick_7">
     <g id="line2d_14">
      <path d="M 822.961762 585.511406 
L 822.961762 36.031406 
" clip-path="url(#pcca2aab98d)" style="fill: none; stroke-dasharray: 1,1.65; stroke-dashoffset: 0; stroke: #cccccc; stroke-opacity: 0.3"/>
     </g>
     <g id="text_14">
      <!-- −2 -->
      <g style="fill: #262626" transform="translate(814.980668 605.032344) scale(0.14 -0.14)">
       <use xlink:href="#ArialMT-2212"/>
       <use xlink:href="#ArialMT-32" transform="translate(58.398438 0)"/>
      </g>
     </g>
    </g>
    <g id="xtick_8">
     <g id="line2d_15">
      <path d="M 927.375552 585.511406 
L 927.375552 36.031406 
" clip-path="url(#pcca2aab98d)" style="fill: none; stroke-dasharray: 1,1.65; stroke-dashoffset: 0; stroke: #cccccc; stroke-opacity: 0.3"/>
     </g>
     <g id="text_15">
      <!-- 0 -->
      <g style="fill: #262626" transform="translate(923.482896 605.032344) scale(0.14 -0.14)">
       <use xlink:href="#ArialMT-30"/>
      </g>
     </g>
    </g>
    <g id="xtick_9">
     <g id="line2d_16">
      <path d="M 1031.789343 585.511406 
L 1031.789343 36.031406 
" clip-path="url(#pcca2aab98d)" style="fill: none; stroke-dasharray: 1,1.65; stroke-dashoffset: 0; stroke: #cccccc; stroke-opacity: 0.3"/>
     </g>
     <g id="text_16">
      <!-- 2 -->
      <g style="fill: #262626" transform="translate(1027.896686 605.032344) scale(0.14 -0.14)">
       <use xlink:href="#ArialMT-32"/>
      </g>
     </g>
    </g>
    <g id="xtick_10">
     <g id="line2d_17">
      <path d="M 1136.203133 585.511406 
L 1136.203133 36.031406 
" clip-path="url(#pcca2aab98d)" style="fill: none; stroke-dasharray: 1,1.65; stroke-dashoffset: 0; stroke: #cccccc; stroke-opacity: 0.3"/>
     </g>
     <g id="text_17">
      <!-- 4 -->
      <g style="fill: #262626" transform="translate(1132.310477 605.032344) scale(0.14 -0.14)">
       <use xlink:href="#ArialMT-34"/>
      </g>
     </g>
    </g>
    <g id="text_18">
     <!-- Ideological Position Index (IPI) -->
     <g style="fill: #262626" transform="translate(775.990938 624.918281) scale(0.18 -0.18)">
      <use xlink:href="#Arial-BoldMT-49"/>
      <use xlink:href="#Arial-BoldMT-64" transform="translate(27.783203 0)"/>
      <use xlink:href="#Arial-BoldMT-65" transform="translate(88.867188 0)"/>
      <use xlink:href="#Arial-BoldMT-6f" transform="translate(144.482422 0)"/>
      <use xlink:href="#Arial-BoldMT-6c" transform="translate(205.566406 0)"/>
      <use xlink:href="#Arial-BoldMT-6f" transform="translate(233.349609 0)"/>
      <use xlink:href="#Arial-BoldMT-67" transform="translate(294.433594 0)"/>
      <use xlink:href="#Arial-BoldMT-69" transform="translate(355.517578 0)"/>
      <use xlink:href="#Arial-BoldMT-63" transform="translate(383.300781 0)"/>
      <use xlink:href="#Arial-BoldMT-61" transform="translate(438.916016 0)"/>
      <use xlink:href="#Arial-BoldMT-6c" transform="translate(494.53125 0)"/>
      <use xlink:href="#Arial-BoldMT-20" transform="translate(522.314453 0)"/>
      <use xlink:href="#Arial-BoldMT-50" transform="translate(550.097656 0)"/>
      <use xlink:href="#Arial-BoldMT-6f" transform="translate(616.796875 0)"/>
      <use xlink:href="#Arial-BoldMT-73" transform="translate(677.880859 0)"/>
      <use xlink:href="#Arial-BoldMT-69" transform="translate(733.496094 0)"/>
      <use xlink:href="#Arial-BoldMT-74" transform="translate(761.279297 0)"/>
      <use xlink:href="#Arial-BoldMT-69" transform="translate(794.580078 0)"/>
      <use xlink:href="#Arial-BoldMT-6f" transform="translate(822.363281 0)"/>
      <use xlink:href="#Arial-BoldMT-6e" transform="translate(883.447266 0)"/>
      <use xlink:href="#Arial-BoldMT-20" transform="translate(944.53125 0)"/>
      <use xlink:href="#Arial-BoldMT-49" transform="translate(972.314453 0)"/>
      <use xlink:href="#Arial-BoldMT-6e" transform="translate(1000.097656 0)"/>
      <use xlink:href="#Arial-BoldMT-64" transform="translate(1061.181641 0)"/>
      <use xlink:href="#Arial-BoldMT-65" transform="translate(1122.265625 0)"/>
      <use xlink:href="#Arial-BoldMT-78" transform="translate(1177.880859 0)"/>
      <use xlink:href="#Arial-BoldMT-20" transform="translate(1233.496094 0)"/>
      <use xlink:href="#Arial-BoldMT-28" transform="translate(1261.279297 0)"/>
      <use xlink:href="#Arial-BoldMT-49" transform="translate(1294.580078 0)"/>
      <use xlink:href="#Arial-BoldMT-50" transform="translate(1322.363281 0)"/>
      <use xlink:href="#Arial-BoldMT-49" transform="translate(1389.0625 0)"/>
      <use xlink:href="#Arial-BoldMT-29" transform="translate(1416.845703 0)"/>
     </g>
    </g>
   </g>
   <g id="matplotlib.axis_4">
    <g id="ytick_4">
     <g id="line2d_18">
      <path d="M 668.727868 560.535043 
L 1144.259632 560.535043 
" clip-path="url(#pcca2aab98d)" style="fill: none; stroke: #cccccc; stroke-linecap: round"/>
     </g>
    </g>
    <g id="ytick_5">
     <g id="line2d_19">
      <path d="M 668.727868 310.771406 
L 1144.259632 310.771406 
" clip-path="url(#pcca2aab98d)" style="fill: none; stroke: #cccccc; stroke-linecap: round"/>
     </g>
    </g>
    <g id="ytick_6">
     <g id="line2d_20">
      <path d="M 668.727868 61.00777 
L 1144.259632 61.00777 
" clip-path="url(#pcca2aab98d)" style="fill: none; stroke: #cccccc; stroke-linecap: round"/>
     </g>
    </g>
   </g>
   <g id="line2d_21">
    <path d="M 927.375552 585.511406 
L 927.375552 36.031406 
" clip-path="url(#pcca2aab98d)" style="fill: none; stroke-dasharray: 5.55,2.4; stroke-dashoffset: 0; stroke: #000000; stroke-opacity: 0.5; stroke-width: 1.5"/>
   </g>
   <g id="patch_8">
    <path d="M 668.727868 585.511406 
L 668.727868 36.031406 
" style="fill: none; stroke: #cccccc; stroke-width: 1.25; stroke-linejoin: miter; stroke-linecap: square"/>
   </g>
   <g id="patch_9">
    <path d="M 1144.259632 585.511406 
L 1144.259632 36.031406 
" style="fill: none; stroke: #cccccc; stroke-width: 1.25; stroke-linejoin: miter; stroke-linecap: square"/>
   </g>
   <g id="patch_10">
    <path d="M 668.727868 585.511406 
L 1144.259632 585.511406 
" style="fill: none; stroke: #cccccc; stroke-width: 1.25; stroke-linejoin: miter; stroke-linecap: square"/>
   </g>
   <g id="patch_11">
    <path d="M 668.727868 36.031406 
L 1144.259632 36.031406 
" style="fill: none; stroke: #cccccc; stroke-width: 1.25; stroke-linejoin: miter; stroke-linecap: square"/>
   </g>
   <g id="LineCollection_2">
    <path d="M 740.037616 560.535043 
L 897.184759 560.535043 
" clip-path="url(#pcca2aab98d)" style="fill: none"/>
    <path d="M 840.348851 310.771406 
L 953.49421 310.771406 
" clip-path="url(#pcca2aab98d)" style="fill: none"/>
    <path d="M 794.540669 61.00777 
L 920.992049 61.00777 
" clip-path="url(#pcca2aab98d)" style="fill: none"/>
   </g>
   <g id="line2d_22">
    <defs>
     <path id="m4a5b446bf6" d="M 0 4 
L 0 -4 
" style="stroke: #95a5a6; stroke-opacity: 0.8; stroke-width: 1.5"/>
    </defs>
    <g clip-path="url(#pcca2aab98d)">
     <use xlink:href="#m4a5b446bf6" x="740.037616" y="560.535043" style="fill: #95a5a6; fill-opacity: 0.8; stroke: #95a5a6; stroke-opacity: 0.8; stroke-width: 1.5"/>
     <use xlink:href="#m4a5b446bf6" x="840.348851" y="310.771406" style="fill: #95a5a6; fill-opacity: 0.8; stroke: #95a5a6; stroke-opacity: 0.8; stroke-width: 1.5"/>
     <use xlink:href="#m4a5b446bf6" x="794.540669" y="61.00777" style="fill: #95a5a6; fill-opacity: 0.8; stroke: #95a5a6; stroke-opacity: 0.8; stroke-width: 1.5"/>
    </g>
   </g>
   <g id="line2d_23">
    <g clip-path="url(#pcca2aab98d)">
     <use xlink:href="#m4a5b446bf6" x="897.184759" y="560.535043" style="fill: #95a5a6; fill-opacity: 0.8; stroke: #95a5a6; stroke-opacity: 0.8; stroke-width: 1.5"/>
     <use xlink:href="#m4a5b446bf6" x="953.49421" y="310.771406" style="fill: #95a5a6; fill-opacity: 0.8; stroke: #95a5a6; stroke-opacity: 0.8; stroke-width: 1.5"/>
     <use xlink:href="#m4a5b446bf6" x="920.992049" y="61.00777" style="fill: #95a5a6; fill-opacity: 0.8; stroke: #95a5a6; stroke-opacity: 0.8; stroke-width: 1.5"/>
    </g>
   </g>
   <g id="text_19">
    <!-- B -->
    <g style="fill: #262626" transform="translate(580.065603 25.736156) scale(0.24 -0.24)">
     <defs>
      <path id="Arial-BoldMT-42" d="M 469 4581 
L 2300 4581 
Q 2844 4581 3111 4536 
Q 3378 4491 3589 4347 
Q 3800 4203 3940 3964 
Q 4081 3725 4081 3428 
Q 4081 3106 3907 2837 
Q 3734 2569 3438 2434 
Q 3856 2313 4081 2019 
Q 4306 1725 4306 1328 
Q 4306 1016 4161 720 
Q 4016 425 3764 248 
Q 3513 72 3144 31 
Q 2913 6 2028 0 
L 469 0 
L 469 4581 
z
M 1394 3819 
L 1394 2759 
L 2000 2759 
Q 2541 2759 2672 2775 
Q 2909 2803 3045 2939 
Q 3181 3075 3181 3297 
Q 3181 3509 3064 3642 
Q 2947 3775 2716 3803 
Q 2578 3819 1925 3819 
L 1394 3819 
z
M 1394 1997 
L 1394 772 
L 2250 772 
Q 2750 772 2884 800 
Q 3091 838 3220 983 
Q 3350 1128 3350 1372 
Q 3350 1578 3250 1722 
Q 3150 1866 2961 1931 
Q 2772 1997 2141 1997 
L 1394 1997 
z
" transform="scale(0.015625)"/>
     </defs>
     <use xlink:href="#Arial-BoldMT-42"/>
    </g>
   </g>
   <g id="text_20">
    <!-- No-Context User -->
    <g style="fill: #262626" transform="translate(831.546172 21.031406) scale(0.19 -0.19)">
     <defs>
      <path id="Arial-BoldMT-4e" d="M 475 0 
L 475 4581 
L 1375 4581 
L 3250 1522 
L 3250 4581 
L 4109 4581 
L 4109 0 
L 3181 0 
L 1334 2988 
L 1334 0 
L 475 0 
z
" transform="scale(0.015625)"/>
      <path id="Arial-BoldMT-43" d="M 3397 1684 
L 4294 1400 
Q 4088 650 3608 286 
Q 3128 -78 2391 -78 
Q 1478 -78 890 545 
Q 303 1169 303 2250 
Q 303 3394 893 4026 
Q 1484 4659 2447 4659 
Q 3288 4659 3813 4163 
Q 4125 3869 4281 3319 
L 3366 3100 
Q 3284 3456 3026 3662 
Q 2769 3869 2400 3869 
Q 1891 3869 1573 3503 
Q 1256 3138 1256 2319 
Q 1256 1450 1568 1081 
Q 1881 713 2381 713 
Q 2750 713 3015 947 
Q 3281 1181 3397 1684 
z
" transform="scale(0.015625)"/>
     </defs>
     <use xlink:href="#Arial-BoldMT-4e"/>
     <use xlink:href="#Arial-BoldMT-6f" transform="translate(72.216797 0)"/>
     <use xlink:href="#Arial-BoldMT-2d" transform="translate(133.300781 0)"/>
     <use xlink:href="#Arial-BoldMT-43" transform="translate(166.601562 0)"/>
     <use xlink:href="#Arial-BoldMT-6f" transform="translate(238.818359 0)"/>
     <use xlink:href="#Arial-BoldMT-6e" transform="translate(299.902344 0)"/>
     <use xlink:href="#Arial-BoldMT-74" transform="translate(360.986328 0)"/>
     <use xlink:href="#Arial-BoldMT-65" transform="translate(394.287109 0)"/>
     <use xlink:href="#Arial-BoldMT-78" transform="translate(449.902344 0)"/>
     <use xlink:href="#Arial-BoldMT-74" transform="translate(505.517578 0)"/>
     <use xlink:href="#Arial-BoldMT-20" transform="translate(538.818359 0)"/>
     <use xlink:href="#Arial-BoldMT-55" transform="translate(566.601562 0)"/>
     <use xlink:href="#Arial-BoldMT-73" transform="translate(638.818359 0)"/>
     <use xlink:href="#Arial-BoldMT-65" transform="translate(694.433594 0)"/>
     <use xlink:href="#Arial-BoldMT-72" transform="translate(750.048828 0)"/>
    </g>
   </g>
   <g id="line2d_24">
    <defs>
     <path id="mb402e152a1" d="M -7 7 
L 7 7 
L 7 -7 
L -7 -7 
z
" style="stroke: #95a5a6; stroke-opacity: 0.8; stroke-linejoin: miter"/>
    </defs>
    <g clip-path="url(#pcca2aab98d)">
     <use xlink:href="#mb402e152a1" x="818.611187" y="560.535043" style="fill: #95a5a6; fill-opacity: 0.8; stroke: #95a5a6; stroke-opacity: 0.8; stroke-linejoin: miter"/>
     <use xlink:href="#mb402e152a1" x="896.92153" y="310.771406" style="fill: #95a5a6; fill-opacity: 0.8; stroke: #95a5a6; stroke-opacity: 0.8; stroke-linejoin: miter"/>
     <use xlink:href="#mb402e152a1" x="857.766359" y="61.00777" style="fill: #95a5a6; fill-opacity: 0.8; stroke: #95a5a6; stroke-opacity: 0.8; stroke-linejoin: miter"/>
    </g>
   </g>
  </g>
  <g id="axes_3">
   <g id="patch_12">
    <path d="M 1233.626985 585.511406 
L 1709.15875 585.511406 
L 1709.15875 36.031406 
L 1233.626985 36.031406 
z
" style="fill: #ffffff"/>
   </g>
   <g id="matplotlib.axis_5">
    <g id="xtick_11">
     <g id="line2d_25">
      <path d="M 1283.447089 585.511406 
L 1283.447089 36.031406 
" clip-path="url(#pabf8bfc7e0)" style="fill: none; stroke-dasharray: 1,1.65; stroke-dashoffset: 0; stroke: #cccccc; stroke-opacity: 0.3"/>
     </g>
     <g id="text_21">
      <!-- −4 -->
      <g style="fill: #262626" transform="translate(1275.465995 605.032344) scale(0.14 -0.14)">
       <use xlink:href="#ArialMT-2212"/>
       <use xlink:href="#ArialMT-34" transform="translate(58.398438 0)"/>
      </g>
     </g>
    </g>
    <g id="xtick_12">
     <g id="line2d_26">
      <path d="M 1387.86088 585.511406 
L 1387.86088 36.031406 
" clip-path="url(#pabf8bfc7e0)" style="fill: none; stroke-dasharray: 1,1.65; stroke-dashoffset: 0; stroke: #cccccc; stroke-opacity: 0.3"/>
     </g>
     <g id="text_22">
      <!-- −2 -->
      <g style="fill: #262626" transform="translate(1379.879786 605.032344) scale(0.14 -0.14)">
       <use xlink:href="#ArialMT-2212"/>
       <use xlink:href="#ArialMT-32" transform="translate(58.398438 0)"/>
      </g>
     </g>
    </g>
    <g id="xtick_13">
     <g id="line2d_27">
      <path d="M 1492.27467 585.511406 
L 1492.27467 36.031406 
" clip-path="url(#pabf8bfc7e0)" style="fill: none; stroke-dasharray: 1,1.65; stroke-dashoffset: 0; stroke: #cccccc; stroke-opacity: 0.3"/>
     </g>
     <g id="text_23">
      <!-- 0 -->
      <g style="fill: #262626" transform="translate(1488.382014 605.032344) scale(0.14 -0.14)">
       <use xlink:href="#ArialMT-30"/>
      </g>
     </g>
    </g>
    <g id="xtick_14">
     <g id="line2d_28">
      <path d="M 1596.68846 585.511406 
L 1596.68846 36.031406 
" clip-path="url(#pabf8bfc7e0)" style="fill: none; stroke-dasharray: 1,1.65; stroke-dashoffset: 0; stroke: #cccccc; stroke-opacity: 0.3"/>
     </g>
     <g id="text_24">
      <!-- 2 -->
      <g style="fill: #262626" transform="translate(1592.795804 605.032344) scale(0.14 -0.14)">
       <use xlink:href="#ArialMT-32"/>
      </g>
     </g>
    </g>
    <g id="xtick_15">
     <g id="line2d_29">
      <path d="M 1701.102251 585.511406 
L 1701.102251 36.031406 
" clip-path="url(#pabf8bfc7e0)" style="fill: none; stroke-dasharray: 1,1.65; stroke-dashoffset: 0; stroke: #cccccc; stroke-opacity: 0.3"/>
     </g>
     <g id="text_25">
      <!-- 4 -->
      <g style="fill: #262626" transform="translate(1697.209594 605.032344) scale(0.14 -0.14)">
       <use xlink:href="#ArialMT-34"/>
      </g>
     </g>
    </g>
    <g id="text_26">
     <!-- Ideological Position Index (IPI) -->
     <g style="fill: #262626" transform="translate(1340.890055 624.918281) scale(0.18 -0.18)">
      <use xlink:href="#Arial-BoldMT-49"/>
      <use xlink:href="#Arial-BoldMT-64" transform="translate(27.783203 0)"/>
      <use xlink:href="#Arial-BoldMT-65" transform="translate(88.867188 0)"/>
      <use xlink:href="#Arial-BoldMT-6f" transform="translate(144.482422 0)"/>
      <use xlink:href="#Arial-BoldMT-6c" transform="translate(205.566406 0)"/>
      <use xlink:href="#Arial-BoldMT-6f" transform="translate(233.349609 0)"/>
      <use xlink:href="#Arial-BoldMT-67" transform="translate(294.433594 0)"/>
      <use xlink:href="#Arial-BoldMT-69" transform="translate(355.517578 0)"/>
      <use xlink:href="#Arial-BoldMT-63" transform="translate(383.300781 0)"/>
      <use xlink:href="#Arial-BoldMT-61" transform="translate(438.916016 0)"/>
      <use xlink:href="#Arial-BoldMT-6c" transform="translate(494.53125 0)"/>
      <use xlink:href="#Arial-BoldMT-20" transform="translate(522.314453 0)"/>
      <use xlink:href="#Arial-BoldMT-50" transform="translate(550.097656 0)"/>
      <use xlink:href="#Arial-BoldMT-6f" transform="translate(616.796875 0)"/>
      <use xlink:href="#Arial-BoldMT-73" transform="translate(677.880859 0)"/>
      <use xlink:href="#Arial-BoldMT-69" transform="translate(733.496094 0)"/>
      <use xlink:href="#Arial-BoldMT-74" transform="translate(761.279297 0)"/>
      <use xlink:href="#Arial-BoldMT-69" transform="translate(794.580078 0)"/>
      <use xlink:href="#Arial-BoldMT-6f" transform="translate(822.363281 0)"/>
      <use xlink:href="#Arial-BoldMT-6e" transform="translate(883.447266 0)"/>
      <use xlink:href="#Arial-BoldMT-20" transform="translate(944.53125 0)"/>
      <use xlink:href="#Arial-BoldMT-49" transform="translate(972.314453 0)"/>
      <use xlink:href="#Arial-BoldMT-6e" transform="translate(1000.097656 0)"/>
      <use xlink:href="#Arial-BoldMT-64" transform="translate(1061.181641 0)"/>
      <use xlink:href="#Arial-BoldMT-65" transform="translate(1122.265625 0)"/>
      <use xlink:href="#Arial-BoldMT-78" transform="translate(1177.880859 0)"/>
      <use xlink:href="#Arial-BoldMT-20" transform="translate(1233.496094 0)"/>
      <use xlink:href="#Arial-BoldMT-28" transform="translate(1261.279297 0)"/>
      <use xlink:href="#Arial-BoldMT-49" transform="translate(1294.580078 0)"/>
      <use xlink:href="#Arial-BoldMT-50" transform="translate(1322.363281 0)"/>
      <use xlink:href="#Arial-BoldMT-49" transform="translate(1389.0625 0)"/>
      <use xlink:href="#Arial-BoldMT-29" transform="translate(1416.845703 0)"/>
     </g>
    </g>
   </g>
   <g id="matplotlib.axis_6">
    <g id="ytick_7">
     <g id="line2d_30">
      <path d="M 1233.626985 560.535043 
L 1709.15875 560.535043 
" clip-path="url(#pabf8bfc7e0)" style="fill: none; stroke: #cccccc; stroke-linecap: round"/>
     </g>
    </g>
    <g id="ytick_8">
     <g id="line2d_31">
      <path d="M 1233.626985 310.771406 
L 1709.15875 310.771406 
" clip-path="url(#pabf8bfc7e0)" style="fill: none; stroke: #cccccc; stroke-linecap: round"/>
     </g>
    </g>
    <g id="ytick_9">
     <g id="line2d_32">
      <path d="M 1233.626985 61.00777 
L 1709.15875 61.00777 
" clip-path="url(#pabf8bfc7e0)" style="fill: none; stroke: #cccccc; stroke-linecap: round"/>
     </g>
    </g>
   </g>
   <g id="line2d_33">
    <path d="M 1492.27467 585.511406 
L 1492.27467 36.031406 
" clip-path="url(#pabf8bfc7e0)" style="fill: none; stroke-dasharray: 5.55,2.4; stroke-dashoffset: 0; stroke: #000000; stroke-opacity: 0.5; stroke-width: 1.5"/>
   </g>
   <g id="patch_13">
    <path d="M 1233.626985 585.511406 
L 1233.626985 36.031406 
" style="fill: none; stroke: #cccccc; stroke-width: 1.25; stroke-linejoin: miter; stroke-linecap: square"/>
   </g>
   <g id="patch_14">
    <path d="M 1709.15875 585.511406 
L 1709.15875 36.031406 
" style="fill: none; stroke: #cccccc; stroke-width: 1.25; stroke-linejoin: miter; stroke-linecap: square"/>
   </g>
   <g id="patch_15">
    <path d="M 1233.626985 585.511406 
L 1709.15875 585.511406 
" style="fill: none; stroke: #cccccc; stroke-width: 1.25; stroke-linejoin: miter; stroke-linecap: square"/>
   </g>
   <g id="patch_16">
    <path d="M 1233.626985 36.031406 
L 1709.15875 36.031406 
" style="fill: none; stroke: #cccccc; stroke-width: 1.25; stroke-linejoin: miter; stroke-linecap: square"/>
   </g>
   <g id="LineCollection_3">
    <path d="M 1373.046381 560.535043 
L 1559.296064 560.535043 
" clip-path="url(#pabf8bfc7e0)" style="fill: none"/>
    <path d="M 1447.117078 310.771406 
L 1633.144903 310.771406 
" clip-path="url(#pabf8bfc7e0)" style="fill: none"/>
    <path d="M 1436.834326 61.00777 
L 1669.531103 61.00777 
" clip-path="url(#pabf8bfc7e0)" style="fill: none"/>
   </g>
   <g id="line2d_34">
    <defs>
     <path id="m031e11a89f" d="M 0 4 
L 0 -4 
" style="stroke: #3498db; stroke-opacity: 0.8; stroke-width: 1.5"/>
    </defs>
    <g clip-path="url(#pabf8bfc7e0)">
     <use xlink:href="#m031e11a89f" x="1373.046381" y="560.535043" style="fill: #3498db; fill-opacity: 0.8; stroke: #3498db; stroke-opacity: 0.8; stroke-width: 1.5"/>
     <use xlink:href="#m031e11a89f" x="1447.117078" y="310.771406" style="fill: #3498db; fill-opacity: 0.8; stroke: #3498db; stroke-opacity: 0.8; stroke-width: 1.5"/>
     <use xlink:href="#m031e11a89f" x="1436.834326" y="61.00777" style="fill: #3498db; fill-opacity: 0.8; stroke: #3498db; stroke-opacity: 0.8; stroke-width: 1.5"/>
    </g>
   </g>
   <g id="line2d_35">
    <g clip-path="url(#pabf8bfc7e0)">
     <use xlink:href="#m031e11a89f" x="1559.296064" y="560.535043" style="fill: #3498db; fill-opacity: 0.8; stroke: #3498db; stroke-opacity: 0.8; stroke-width: 1.5"/>
     <use xlink:href="#m031e11a89f" x="1633.144903" y="310.771406" style="fill: #3498db; fill-opacity: 0.8; stroke: #3498db; stroke-opacity: 0.8; stroke-width: 1.5"/>
     <use xlink:href="#m031e11a89f" x="1669.531103" y="61.00777" style="fill: #3498db; fill-opacity: 0.8; stroke: #3498db; stroke-opacity: 0.8; stroke-width: 1.5"/>
    </g>
   </g>
   <g id="text_27">
    <!-- C -->
    <g style="fill: #262626" transform="translate(1144.964721 25.736156) scale(0.24 -0.24)">
     <use xlink:href="#Arial-BoldMT-43"/>
    </g>
   </g>
   <g id="text_28">
    <!-- Right-Wing User -->
    <g style="fill: #262626" transform="translate(1397.070211 21.031406) scale(0.19 -0.19)">
     <defs>
      <path id="Arial-BoldMT-52" d="M 469 0 
L 469 4581 
L 2416 4581 
Q 3150 4581 3483 4457 
Q 3816 4334 4016 4018 
Q 4216 3703 4216 3297 
Q 4216 2781 3912 2445 
Q 3609 2109 3006 2022 
Q 3306 1847 3501 1637 
Q 3697 1428 4028 894 
L 4588 0 
L 3481 0 
L 2813 997 
Q 2456 1531 2325 1670 
Q 2194 1809 2047 1861 
Q 1900 1913 1581 1913 
L 1394 1913 
L 1394 0 
L 469 0 
z
M 1394 2644 
L 2078 2644 
Q 2744 2644 2909 2700 
Q 3075 2756 3169 2893 
Q 3263 3031 3263 3238 
Q 3263 3469 3139 3611 
Q 3016 3753 2791 3791 
Q 2678 3806 2116 3806 
L 1394 3806 
L 1394 2644 
z
" transform="scale(0.015625)"/>
      <path id="Arial-BoldMT-68" d="M 1334 4581 
L 1334 2897 
Q 1759 3394 2350 3394 
Q 2653 3394 2897 3281 
Q 3141 3169 3264 2994 
Q 3388 2819 3433 2606 
Q 3478 2394 3478 1947 
L 3478 0 
L 2600 0 
L 2600 1753 
Q 2600 2275 2550 2415 
Q 2500 2556 2373 2639 
Q 2247 2722 2056 2722 
Q 1838 2722 1666 2615 
Q 1494 2509 1414 2295 
Q 1334 2081 1334 1663 
L 1334 0 
L 456 0 
L 456 4581 
L 1334 4581 
z
" transform="scale(0.015625)"/>
     </defs>
     <use xlink:href="#Arial-BoldMT-52"/>
     <use xlink:href="#Arial-BoldMT-69" transform="translate(72.216797 0)"/>
     <use xlink:href="#Arial-BoldMT-67" transform="translate(100 0)"/>
     <use xlink:href="#Arial-BoldMT-68" transform="translate(161.083984 0)"/>
     <use xlink:href="#Arial-BoldMT-74" transform="translate(222.167969 0)"/>
     <use xlink:href="#Arial-BoldMT-2d" transform="translate(255.46875 0)"/>
     <use xlink:href="#Arial-BoldMT-57" transform="translate(288.769531 0)"/>
     <use xlink:href="#Arial-BoldMT-69" transform="translate(382.279297 0)"/>
     <use xlink:href="#Arial-BoldMT-6e" transform="translate(410.0625 0)"/>
     <use xlink:href="#Arial-BoldMT-67" transform="translate(471.146484 0)"/>
     <use xlink:href="#Arial-BoldMT-20" transform="translate(532.230469 0)"/>
     <use xlink:href="#Arial-BoldMT-55" transform="translate(560.013672 0)"/>
     <use xlink:href="#Arial-BoldMT-73" transform="translate(632.230469 0)"/>
     <use xlink:href="#Arial-BoldMT-65" transform="translate(687.845703 0)"/>
     <use xlink:href="#Arial-BoldMT-72" transform="translate(743.460938 0)"/>
    </g>
   </g>
   <g id="line2d_36">
    <defs>
     <path id="md321c3af7c" d="M -0 9.899495 
L 9.899495 0 
L 0 -9.899495 
L -9.899495 -0 
z
" style="stroke: #3498db; stroke-opacity: 0.8; stroke-linejoin: miter"/>
    </defs>
    <g clip-path="url(#pabf8bfc7e0)">
     <use xlink:href="#md321c3af7c" x="1466.171222" y="560.535043" style="fill: #3498db; fill-opacity: 0.8; stroke: #3498db; stroke-opacity: 0.8; stroke-linejoin: miter"/>
     <use xlink:href="#md321c3af7c" x="1540.130991" y="310.771406" style="fill: #3498db; fill-opacity: 0.8; stroke: #3498db; stroke-opacity: 0.8; stroke-linejoin: miter"/>
     <use xlink:href="#md321c3af7c" x="1553.182714" y="61.00777" style="fill: #3498db; fill-opacity: 0.8; stroke: #3498db; stroke-opacity: 0.8; stroke-linejoin: miter"/>
    </g>
   </g>
  </g>
 </g>
 <defs>
  <clipPath id="p1cf4074285">
   <rect x="103.82875" y="36.031406" width="475.531765" height="549.48"/>
  </clipPath>
  <clipPath id="pcca2aab98d">
   <rect x="668.727868" y="36.031406" width="475.531765" height="549.48"/>
  </clipPath>
  <clipPath id="pabf8bfc7e0">
   <rect x="1233.626985" y="36.031406" width="475.531765" height="549.48"/>
  </clipPath>
 </defs>
</svg>
